<svg width="100" height="100" viewBox="0 0 100 100" fill="none" xmlns="http://www.w3.org/2000/svg">
<path d="M0 0H100V100H0V0Z" fill="white"/>
<path fill-rule="evenodd" clip-rule="evenodd" d="M50.1327 5.33588C24.9464 5.33588 4.50496 25.7773 4.50496 50.9637C4.50496 76.15 24.9464 96.5914 50.1327 96.5914C75.319 96.5914 95.7605 76.15 95.7605 50.9637C95.7605 25.7773 75.319 5.33588 50.1327 5.33588ZM2.93405 50.9637C2.93405 24.9098 24.0788 3.76497 50.1327 3.76497C76.1866 3.76497 97.3314 24.9098 97.3314 50.9637C97.3314 77.0175 76.1866 98.1623 50.1327 98.1623C24.0788 98.1623 2.93405 77.0175 2.93405 50.9637Z" fill="#F919A9"/>
<path d="M54.0482 55.48C53.4949 55.204 52.8225 55.4281 52.5454 55.9809L52.4273 56.2171C52.0032 57.0657 51.1359 57.6018 50.1873 57.6018C49.2386 57.6018 48.3714 57.0657 47.9473 56.2171L47.8291 55.9809C47.5525 55.4276 46.8797 55.2034 46.3264 55.48C45.7731 55.7567 45.5488 56.4295 45.8254 56.9828L45.9436 57.2191C46.7474 58.8264 48.3902 59.8418 50.1874 59.8418C51.9845 59.8418 53.6273 58.8264 54.4311 57.2191L54.5491 56.9828C54.682 56.7171 54.7039 56.4095 54.6099 56.1276C54.516 55.8458 54.3139 55.6128 54.0482 55.48Z" fill="#F919A9"/>
<path fill-rule="evenodd" clip-rule="evenodd" d="M46.2951 55.4174C46.8829 55.1235 47.5978 55.3617 47.8917 55.9496L48.0099 56.1858C48.4221 57.0107 49.2651 57.5318 50.1873 57.5318C51.1094 57.5318 51.9524 57.0107 52.3647 56.1858L52.4828 55.9496C52.7772 55.3623 53.4916 55.1241 54.0794 55.4174C54.3618 55.5585 54.5765 55.806 54.6763 56.1055C54.7761 56.4049 54.7529 56.7317 54.6117 57.014C54.6117 57.0141 54.6118 57.014 54.6117 57.014L54.4937 57.2504C53.6781 58.8814 52.011 59.9118 50.1874 59.9118C48.3637 59.9118 46.6966 58.8815 45.881 57.2504L45.7628 57.0141C45.4689 56.4262 45.7072 55.7113 46.2951 55.4174ZM47.7665 56.0122C47.5072 55.4935 46.8764 55.2833 46.3577 55.5426C45.8389 55.802 45.6287 56.4327 45.888 56.9515L46.0062 57.1878C46.0062 57.1878 46.0062 57.1878 46.0062 57.1878C46.7981 58.7714 48.4168 59.7718 50.1874 59.7718C51.958 59.7718 53.5766 58.7714 54.3685 57.1878L54.4865 56.9515C54.6111 56.7024 54.6316 56.414 54.5435 56.1498C54.4555 55.8856 54.266 55.6672 54.017 55.5426C53.4982 55.2838 52.8678 55.494 52.608 56.0122C52.608 56.0123 52.6081 56.0122 52.608 56.0122L52.4899 56.2484C52.4899 56.2484 52.4899 56.2484 52.4899 56.2484C52.0539 57.1207 51.1625 57.6718 50.1873 57.6718C49.2121 57.6718 48.3206 57.1207 47.8847 56.2484C47.8847 56.2484 47.8847 56.2484 47.8847 56.2484L47.7665 56.0122Z" fill="#F919A9"/>
<path d="M46.9655 47.7509C46.9655 45.8952 45.4612 44.3909 43.6055 44.3909C41.7498 44.3909 40.2455 45.8952 40.2455 47.7509C40.2455 48.3695 40.7469 48.8709 41.3655 48.8709C41.984 48.8709 42.4855 48.3695 42.4855 47.7509C42.4855 47.1323 42.9869 46.6309 43.6055 46.6309C44.224 46.6309 44.7255 47.1323 44.7255 47.7509C44.7255 48.3695 45.2269 48.8709 45.8455 48.8709C46.464 48.8709 46.9655 48.3695 46.9655 47.7509Z" fill="#F919A9"/>
<path fill-rule="evenodd" clip-rule="evenodd" d="M40.1755 47.7509C40.1755 45.8566 41.7111 44.3209 43.6055 44.3209C45.4998 44.3209 47.0355 45.8566 47.0355 47.7509C47.0355 48.4081 46.5027 48.9409 45.8455 48.9409C45.1883 48.9409 44.6555 48.4081 44.6555 47.7509C44.6555 47.171 44.1854 46.7009 43.6055 46.7009C43.0256 46.7009 42.5555 47.171 42.5555 47.7509C42.5555 48.4081 42.0227 48.9409 41.3655 48.9409C40.7083 48.9409 40.1755 48.4081 40.1755 47.7509ZM43.6055 44.4609C41.7885 44.4609 40.3155 45.9339 40.3155 47.7509C40.3155 48.3308 40.7856 48.8009 41.3655 48.8009C41.9454 48.8009 42.4155 48.3308 42.4155 47.7509C42.4155 47.0937 42.9483 46.5609 43.6055 46.5609C44.2627 46.5609 44.7955 47.0937 44.7955 47.7509C44.7955 48.3308 45.2656 48.8009 45.8455 48.8009C46.4254 48.8009 46.8955 48.3308 46.8955 47.7509C46.8955 45.9339 45.4225 44.4609 43.6055 44.4609Z" fill="#F919A9"/>
<path d="M60.1327 47.7509C60.1327 45.8952 58.6284 44.3909 56.7727 44.3909C54.9171 44.3909 53.4127 45.8952 53.4127 47.7509C53.4127 48.3695 53.9142 48.8709 54.5327 48.8709C55.1513 48.8709 55.6527 48.3695 55.6527 47.7509C55.6527 47.1323 56.1542 46.6309 56.7727 46.6309C57.3913 46.6309 57.8927 47.1323 57.8927 47.7509C57.8927 48.3695 58.3942 48.8709 59.0127 48.8709C59.6313 48.8709 60.1327 48.3695 60.1327 47.7509Z" fill="#F919A9"/>
<path fill-rule="evenodd" clip-rule="evenodd" d="M53.3427 47.7509C53.3427 45.8566 54.8784 44.3209 56.7727 44.3209C58.6671 44.3209 60.2027 45.8566 60.2027 47.7509C60.2027 48.4081 59.6699 48.9409 59.0127 48.9409C58.3555 48.9409 57.8227 48.4081 57.8227 47.7509C57.8227 47.171 57.3526 46.7009 56.7727 46.7009C56.1928 46.7009 55.7227 47.171 55.7227 47.7509C55.7227 48.4081 55.19 48.9409 54.5327 48.9409C53.8755 48.9409 53.3427 48.4081 53.3427 47.7509ZM56.7727 44.4609C54.9557 44.4609 53.4827 45.9339 53.4827 47.7509C53.4827 48.3308 53.9528 48.8009 54.5327 48.8009C55.1126 48.8009 55.5827 48.3308 55.5827 47.7509C55.5827 47.0937 56.1155 46.5609 56.7727 46.5609C57.4299 46.5609 57.9627 47.0937 57.9627 47.7509C57.9627 48.3308 58.4328 48.8009 59.0127 48.8009C59.5926 48.8009 60.0627 48.3308 60.0627 47.7509C60.0627 45.9339 58.5897 44.4609 56.7727 44.4609Z" fill="#F919A9"/>
<path d="M47.4454 77.3346C46.5176 77.3346 45.7654 78.0867 45.7654 79.0146C45.7654 79.9424 46.5176 80.6946 47.4454 80.6946C48.3733 80.6946 49.1255 79.9424 49.1255 79.0146C49.1244 78.0871 48.3729 77.3356 47.4454 77.3346Z" fill="#F919A9"/>
<path fill-rule="evenodd" clip-rule="evenodd" d="M45.6954 79.0146C45.6954 78.0481 46.4789 77.2646 47.4454 77.2646C48.4115 77.2656 49.1944 78.0485 49.1954 79.0145C49.1954 79.981 48.4119 80.7646 47.4454 80.7646C46.4789 80.7646 45.6954 79.9811 45.6954 79.0146ZM47.4454 77.4046C46.5563 77.4046 45.8355 78.1254 45.8355 79.0146C45.8355 79.9037 46.5563 80.6246 47.4454 80.6246C48.3346 80.6246 49.0554 79.9038 49.0554 79.0146C49.0545 78.1258 48.3342 77.4055 47.4454 77.4046Z" fill="#F919A9"/>
<path d="M47.4454 81.7018C46.5176 81.7018 45.7654 82.454 45.7654 83.3818C45.7654 84.3096 46.5176 85.0618 47.4454 85.0618C48.3733 85.0618 49.1255 84.3096 49.1255 83.3818C49.1244 82.4544 48.3729 81.7028 47.4454 81.7018Z" fill="#F919A9"/>
<path fill-rule="evenodd" clip-rule="evenodd" d="M45.6954 83.3818C45.6954 82.4153 46.4789 81.6318 47.4454 81.6318C48.4115 81.6328 49.1944 82.4157 49.1954 83.3817C49.1954 84.3482 48.4119 85.1318 47.4454 85.1318C46.4789 85.1318 45.6954 84.3483 45.6954 83.3818ZM47.4454 81.7718C46.5563 81.7718 45.8355 82.4926 45.8355 83.3818C45.8355 84.271 46.5563 84.9918 47.4454 84.9918C48.3346 84.9918 49.0554 84.271 49.0554 83.3819C49.0545 82.4931 48.3342 81.7728 47.4454 81.7718Z" fill="#F919A9"/>
<path d="M63.4418 79.5745V76.2146C63.4418 75.596 62.9404 75.0946 62.3218 75.0946H55.6018C54.9832 75.0946 54.4818 75.596 54.4818 76.2146V79.5745C54.4818 80.1931 54.9832 80.6945 55.6018 80.6945H62.3218C62.9404 80.6945 63.4418 80.1931 63.4418 79.5745ZM61.2018 78.4545H56.7218V77.3345H61.2018V78.4545Z" fill="#F919A9"/>
<path fill-rule="evenodd" clip-rule="evenodd" d="M54.4118 76.2146C54.4118 75.5573 54.9446 75.0245 55.6018 75.0245H62.3218C62.979 75.0245 63.5118 75.5573 63.5118 76.2146V79.5745C63.5118 80.2318 62.979 80.7646 62.3218 80.7646H55.6018C54.9446 80.7646 54.4118 80.2318 54.4118 79.5745V76.2146ZM55.6018 75.1645C55.0219 75.1645 54.5518 75.6347 54.5518 76.2146V79.5745C54.5518 80.1544 55.0219 80.6245 55.6018 80.6245H62.3218C62.9017 80.6245 63.3718 80.1544 63.3718 79.5745V76.2146C63.3718 75.6347 62.9017 75.1645 62.3218 75.1645H55.6018ZM56.6518 77.2646H61.2718V78.5245H56.6518V77.2646ZM56.7918 77.4045V78.3846H61.1318V77.4045H56.7918Z" fill="#F919A9"/>
<path d="M75.1403 74.9832C74.7348 71.9589 72.6163 69.4422 69.7055 68.5268L67.9251 67.9703C71.8965 64.378 72.347 58.3 68.9486 54.1614L66.7539 40.7589C66.6154 39.5037 63.5455 39.6791 63.5455 39.6791L36.4623 39.6871L36.5876 39.6791C36.5876 39.6791 33.2466 39.8534 33.149 40.7589L30.9473 54.1621C27.5489 58.3007 27.9995 64.3787 31.9709 67.971L30.1905 68.5275C27.2796 69.4429 25.1611 71.9596 24.7557 74.9839L23.0778 87.6925C23.0356 88.0123 23.1333 88.3348 23.3459 88.5774C23.5585 88.8199 23.8654 88.9591 24.188 88.9591H56.668C57.2865 88.9591 57.788 88.4577 57.788 87.8391C57.788 87.2206 57.2865 86.7191 56.668 86.7191H43.228V80.7971C43.2258 78.4897 44.2425 76.299 46.0061 74.8111L55.8017 66.5279L69.0382 70.6646C71.1171 71.3193 72.6299 73.1169 72.92 75.2771L74.4305 86.7191H66.748L66.749 79.9991C66.749 79.3806 66.2475 78.8791 65.629 78.8791C65.0104 78.8791 64.509 79.3806 64.509 79.9991L64.508 86.7191H61.148C60.5294 86.7191 60.028 87.2206 60.028 87.8391C60.028 88.4577 60.5294 88.9591 61.148 88.9591H75.708C76.0306 88.9591 76.3374 88.8199 76.5501 88.5774C76.7627 88.3348 76.8604 88.0123 76.8182 87.6925L75.1403 74.9832ZM30.908 60.5314C30.9103 58.6263 31.6071 56.7873 32.868 55.3591C33.0237 55.1825 33.1198 54.9613 33.1425 54.7269L34.3885 41.9191H35.388V49.7591C35.3943 55.1847 38.4156 60.1571 43.228 62.6625V64.4514L34.5821 67.1534C32.3015 65.7235 30.9142 63.2233 30.908 60.5314ZM44.5602 73.0998C42.2922 75.0129 40.9848 77.83 40.988 80.7971V86.7191H35.388L35.389 79.9991C35.389 79.3806 34.8875 78.8791 34.269 78.8791C33.6504 78.8791 33.149 79.3806 33.149 79.9991L33.148 86.7191H25.4655L26.9759 75.2764C27.266 73.1162 28.7789 71.3186 30.8577 70.6639L44.0243 66.549L47.7603 70.3937L44.5602 73.0998ZM54.428 64.7555L49.4748 68.9439L45.468 64.8206V63.6065C48.3791 64.5567 51.5169 64.5567 54.428 63.6065V64.7555ZM49.948 62.0791C43.147 62.0714 37.6357 56.5601 37.628 49.7591V41.9191H62.268V49.7591C62.2603 56.5601 56.7489 62.0714 49.948 62.0791ZM65.314 67.1541L56.668 64.4514V62.6625C61.4804 60.1571 64.5016 55.1847 64.508 49.7591V41.9191H65.5079L66.7539 54.7269C66.7765 54.9612 66.8724 55.1824 67.028 55.3591C68.5498 57.0789 69.2371 59.3816 68.9069 61.6542C68.5766 63.9268 67.2624 65.9386 65.314 67.1541Z" fill="#F919A9"/>
<path d="M33.2727 36.5465C33.2727 35.7426 33.9222 35.0909 34.7233 35.0909H65.2114C66.0126 35.0909 66.662 35.7426 66.662 36.5465V38.8108C66.662 39.6148 66.0126 40.2665 65.2114 40.2665H34.7233C33.9222 40.2665 33.2727 39.6148 33.2727 38.8108V36.5465Z" fill="#F919A9"/>
<path d="M52.7526 5.57425C56.1623 7.24298 57.7345 11.2378 56.3765 14.7824L55.991 15.7885L57.3617 16.8131C62.7612 20.8492 65.5359 27.5037 64.6029 34.1796L64.5678 34.4311H35.5599C34.7536 27.5341 37.5295 20.7036 42.9187 16.3238L43.5774 15.7885L43.0562 13.5944C42.338 10.5706 43.6515 7.4286 46.3083 5.81539L46.557 5.66439C48.3312 4.58713 50.5319 4.48743 52.3962 5.39984L52.7526 5.57425Z" fill="#F919A9"/>
</svg>
