<svg width="200" height="200" viewBox="0 0 200 200" fill="none" xmlns="http://www.w3.org/2000/svg">
<g clip-path="url(#clip0_476_33)">
<path d="M88.4009 159.505L97.367 137.394L105.746 140.726L88.4009 159.505Z" fill="white"/>
<path d="M179.353 32.3636L20.5507 111.956L77.9791 131.359L179.353 32.3636Z" fill="#FCFDF9"/>
<path fill-rule="evenodd" clip-rule="evenodd" d="M181.42 30.8917C180.684 29.8886 179.316 29.5629 178.196 30.1242L19.3941 109.717C18.481 110.174 17.9345 111.125 18.0063 112.132C18.0781 113.139 18.7542 114.006 19.7232 114.333L77.1516 133.736C78.0693 134.046 79.086 133.817 79.775 133.143L181.149 34.1482C182.04 33.2767 182.156 31.8949 181.42 30.8917ZM165.979 41.8862L77.3083 128.477L27.0766 111.505L165.979 41.8862Z" fill="#010202"/>
<path d="M179.353 32.3636L160.949 159.262L94.9642 136.942L179.353 32.3636Z" fill="#FCFDF9"/>
<path fill-rule="evenodd" clip-rule="evenodd" d="M180.362 30.056C179.304 29.6072 178.072 29.9121 177.356 30.8002L92.9675 135.378C92.4519 136.017 92.2835 136.863 92.5158 137.646C92.7481 138.429 93.3522 139.053 94.1358 139.318L160.12 161.638C160.839 161.882 161.631 161.796 162.28 161.405C162.929 161.014 163.367 160.359 163.474 159.617L181.878 32.719C182.04 31.5961 181.419 30.5049 180.362 30.056ZM175.497 41.1792L158.86 155.898L99.2081 135.72L175.497 41.1792Z" fill="#010202"/>
<path d="M94.9643 136.942L79.6766 178.099L77.9791 131.359L179.353 32.3636L94.9643 136.942Z" fill="white"/>
<path fill-rule="evenodd" clip-rule="evenodd" d="M181.055 30.4924C180.05 29.6047 178.516 29.6428 177.557 30.5792L76.1833 129.575C75.6777 130.069 75.4046 130.748 75.43 131.449L77.1275 178.19C77.1711 179.39 78.0718 180.393 79.2766 180.581C80.4814 180.77 81.653 180.091 82.0721 178.963L97.2179 138.187L181.35 33.9272C182.189 32.886 182.061 31.3801 181.055 30.4924ZM150.513 64.0647L92.9675 135.378C92.7974 135.589 92.6628 135.825 92.5689 136.078L81.7598 165.179L80.5682 132.369L150.513 64.0647Z" fill="#010202"/>
<path d="M79.6767 178.099L105.747 140.589L94.9644 136.942L79.6767 178.099Z" fill="#D9DBCD" fill-opacity="0.03"/>
<path fill-rule="evenodd" clip-rule="evenodd" d="M95.7928 134.566C94.4792 134.12 93.0461 134.794 92.5689 136.078L77.2813 177.236C76.8394 178.426 77.3656 179.754 78.5089 180.334C79.6522 180.914 81.055 180.565 81.7814 179.52L107.852 142.008C108.302 141.361 108.419 140.544 108.168 139.799C107.918 139.054 107.329 138.467 106.575 138.213L95.7928 134.566ZM101.749 141.894L89.0594 160.152L96.5007 140.118L101.749 141.894Z" fill="#010202"/>
<rect y="6" width="200" height="200" fill="#D9D9D9" fill-opacity="0.01"/>
</g>
<defs>
<clipPath id="clip0_476_33">
<rect width="200" height="200" fill="white"/>
</clipPath>
</defs>
</svg>
